<svg width="29" height="23" viewBox="0 0 29 23" fill="none" xmlns="http://www.w3.org/2000/svg">
<path d="M25.5977 0.6875C24.4258 0.736328 18.5664 1.12695 14.9043 3.08008C14.709 3.17773 14.3672 3.17773 14.1719 3.08008C10.5098 1.12695 4.65039 0.736328 3.47852 0.6875C1.81836 0.6875 0.5 2.00586 0.5 3.61719V18.0703C0.5 19.6328 1.7207 20.8535 3.2832 20.9512C4.99219 21.0488 9.24023 21.3418 12.1699 22.416C12.4629 22.5137 12.707 22.5625 12.9512 22.5625H16.0762C16.3691 22.5625 16.6133 22.5137 16.9062 22.416C19.8359 21.3418 24.084 21.0488 25.793 20.9512C27.3555 20.8535 28.5762 19.6328 28.5762 18.0703V3.61719C28.625 2.00586 27.2578 0.6875 25.5977 0.6875ZM13.7812 20.2676C13.7812 20.707 13.3906 21.0488 13 21.0488C12.9023 21.0488 12.8535 21 12.7559 21C9.67969 19.8281 5.48047 19.4863 3.38086 19.3887C2.64844 19.3398 2.0625 18.8027 2.0625 18.0703V3.61719C2.0625 2.88477 2.69727 2.29883 3.47852 2.29883C4.40625 2.29883 9.43555 2.64062 12.8535 4.1543C13.3906 4.39844 13.7324 4.93555 13.7324 5.52148L13.7812 10.4043V20.2676ZM27.0625 18.0703C27.0625 18.8027 26.4277 19.3398 25.6953 19.3887C23.5957 19.4863 19.3965 19.8281 16.3203 21C16.2227 21 16.1738 21.0488 16.0762 21.0488C15.6855 21.0488 15.2949 20.707 15.2949 20.2676V10.4043L15.3438 5.52148C15.3438 4.93555 15.6855 4.39844 16.2227 4.1543C19.6406 2.64062 24.6699 2.29883 25.5977 2.29883C26.3789 2.29883 27.0137 2.88477 27.0137 3.61719V18.0703H27.0625Z" fill="#FF7800"/>
</svg>
