<svg width="31" height="31" viewBox="0 0 31 31" fill="none" xmlns="http://www.w3.org/2000/svg">
<path d="M30.0039 17.625H30.2969C30.707 16.8047 30.9414 15.8672 31 14.8125C31 12.8789 30.1211 11.1797 28.7734 9.94922C27.8945 6.84375 25.0234 4.5 21.625 4.5C21.3906 4.5 21.1562 4.55859 20.9805 4.61719C19.9258 2.33203 17.6992 0.75 15.0625 0.75C12.4258 0.75 10.1406 2.33203 9.08594 4.61719C8.91016 4.55859 8.67578 4.5 8.5 4.5C4.33984 4.5 1 7.89844 1 12C1 14.2852 1.99609 16.2773 3.57812 17.625H1.9375C1.41016 17.625 0.941406 18.0938 1 18.6211C1.35156 23.1328 4.39844 26.8242 8.5 28.2305V28.875C8.5 29.9297 9.32031 30.75 10.375 30.75H21.625C22.6797 30.75 23.5 29.9297 23.5 28.875V28.2305C27.543 26.7656 30.5898 23.0742 30.9414 18.6211C31 18.0938 30.5898 17.625 30.0039 17.625ZM29.125 14.8125C29.0664 15.9258 28.7148 16.8633 28.1289 17.625H20.6875C20.1016 16.8633 19.75 15.9258 19.75 14.8125C19.75 12.2344 21.8008 10.125 24.4375 10.125C27.0156 10.125 29.125 12.2344 29.125 14.8125ZM2.875 12C2.875 9.94922 4.22266 5.90625 10.375 6.375C11.957 2.68359 14.1836 2.625 15.0625 2.625C15.8828 2.625 18.1094 2.625 19.75 6.375C21.8008 6.25781 24.2031 6.31641 25.9609 8.48438C25.4336 8.36719 24.9062 8.30859 24.4375 8.25C20.8047 8.30859 17.875 11.2383 17.875 14.8125C17.875 15.8672 18.1094 16.8047 18.5195 17.625H16V6.84375C16 6.60938 15.7656 6.375 15.5312 6.375H14.5938C14.3008 6.375 14.125 6.60938 14.125 6.84375V16.3359L7.62109 9.83203C7.50391 9.71484 7.38672 9.71484 7.26953 9.71484C7.15234 9.71484 7.03516 9.71484 6.91797 9.83203L6.27344 10.4766C6.15625 10.5938 6.09766 10.7109 6.09766 10.8281C6.09766 10.9453 6.15625 11.0625 6.27344 11.1211L12.7773 17.625H8.5C5.39453 17.625 2.875 15.1055 2.875 12ZM22.8555 26.4727L21.625 26.8828V28.875H10.375V26.8828L9.08594 26.4727C5.98047 25.3594 3.63672 22.7227 2.99219 19.5H28.9492C28.3047 22.7227 26.0195 25.3594 22.8555 26.4727Z" fill="#FF7800"/>
</svg>
