<svg width="31" height="30" viewBox="0 0 31 30" fill="none" xmlns="http://www.w3.org/2000/svg">
<path d="M15.5 0.21875C7.47266 0.21875 0.96875 6.72266 0.96875 14.75C0.96875 22.7773 7.47266 29.2812 15.5 29.2812C23.5273 29.2812 30.0312 22.7773 30.0312 14.75C30.0312 6.72266 23.5273 0.21875 15.5 0.21875ZM28.1562 14.75C28.1562 21.7227 22.4727 27.4062 15.5 27.4062C8.52734 27.4062 2.84375 21.7812 2.84375 14.75C2.84375 7.83594 8.46875 2.09375 15.5 2.09375C22.4141 2.09375 28.1562 7.77734 28.1562 14.75ZM19.4258 19.9648C19.7188 20.1992 20.1875 20.082 20.3633 19.7891L20.8906 19.1445C21.125 18.793 21.0078 18.3828 20.7148 18.1484L16.6133 15.1602V6.54688C16.6133 6.19531 16.2617 5.84375 15.9102 5.84375H15.0898C14.6797 5.84375 14.3867 6.19531 14.3867 6.54688V15.9219C14.3867 16.1562 14.4453 16.332 14.6211 16.5078L19.4258 19.9648Z" fill="#FF7800"/>
</svg>
