<svg width="17" height="13" viewBox="0 0 17 13" fill="none" xmlns="http://www.w3.org/2000/svg">
<path d="M16.0469 4.59961H14.0508L10.5234 0.470703C10.2773 0.197266 9.86719 0.169922 9.59375 0.388672C9.32031 0.634766 9.29297 1.04492 9.51172 1.31836L12.3281 4.59961H4.64453L7.46094 1.31836C7.67969 1.04492 7.65234 0.634766 7.37891 0.388672C7.10547 0.169922 6.69531 0.197266 6.44922 0.470703L2.92188 4.59961H0.953125C0.761719 4.59961 0.625 4.76367 0.625 4.92773V5.58398C0.625 5.77539 0.761719 5.91211 0.953125 5.91211H1.44531L2.21094 11.3535C2.29297 12.0098 2.83984 12.4746 3.49609 12.4746H13.4766C14.1328 12.4746 14.6797 12.0098 14.7617 11.3535L15.5273 5.91211H16.0469C16.2109 5.91211 16.375 5.77539 16.375 5.58398V4.92773C16.375 4.76367 16.2109 4.59961 16.0469 4.59961ZM13.4766 11.1621H3.49609L2.78516 5.91211H14.1875L13.4766 11.1621ZM9.15625 7.44336C9.15625 7.08789 8.85547 6.78711 8.5 6.78711C8.11719 6.78711 7.84375 7.08789 7.84375 7.44336V9.63086C7.84375 10.0137 8.11719 10.2871 8.5 10.2871C8.85547 10.2871 9.15625 10.0137 9.15625 9.63086V7.44336ZM12.2188 7.44336C12.2188 7.08789 11.918 6.78711 11.5625 6.78711C11.1797 6.78711 10.9062 7.08789 10.9062 7.44336V9.63086C10.9062 10.0137 11.1797 10.2871 11.5625 10.2871C11.918 10.2871 12.2188 10.0137 12.2188 9.63086V7.44336ZM6.09375 7.44336C6.09375 7.08789 5.79297 6.78711 5.4375 6.78711C5.05469 6.78711 4.78125 7.08789 4.78125 7.44336V9.63086C4.78125 10.0137 5.05469 10.2871 5.4375 10.2871C5.79297 10.2871 6.09375 10.0137 6.09375 9.63086V7.44336Z" fill="#F17228"/>
</svg>
