<svg width="13" height="13" viewBox="0 0 13 13" fill="none" xmlns="http://www.w3.org/2000/svg">
<path d="M11.9062 11.0918L9.07031 8.25586C9 8.20898 8.92969 8.16211 8.85938 8.16211H8.55469C9.28125 7.31836 9.75 6.19336 9.75 4.97461C9.75 2.30273 7.54688 0.0996094 4.875 0.0996094C2.17969 0.0996094 0 2.30273 0 4.97461C0 7.66992 2.17969 9.84961 4.875 9.84961C6.09375 9.84961 7.19531 9.4043 8.0625 8.67773V8.98242C8.0625 9.05273 8.08594 9.12305 8.13281 9.19336L10.9688 12.0293C11.0859 12.1465 11.2734 12.1465 11.3672 12.0293L11.9062 11.4902C12.0234 11.3965 12.0234 11.209 11.9062 11.0918ZM4.875 8.72461C2.78906 8.72461 1.125 7.06055 1.125 4.97461C1.125 2.91211 2.78906 1.22461 4.875 1.22461C6.9375 1.22461 8.625 2.91211 8.625 4.97461C8.625 7.06055 6.9375 8.72461 4.875 8.72461Z" fill="#B5B5B5"/>
</svg>
