<svg width="61" height="71" viewBox="0 0 61 71" fill="none" xmlns="http://www.w3.org/2000/svg">
<path d="M47.375 18.8066C47.375 18.0449 46.7305 17.4004 45.9688 17.4004H41.9844L35.7148 8.8457C35.1289 7.9668 33.957 7.79102 33.1367 8.43555C32.2578 9.02148 32.082 10.1934 32.7266 11.0137L37.3555 17.4004H23.5859L28.2148 11.0137C28.8594 10.1934 28.6836 9.02148 27.8047 8.43555C26.9844 7.79102 25.8125 7.9668 25.2266 8.8457L18.957 17.4004H15.0312C14.2109 17.4004 13.625 18.0449 13.625 18.8066V19.7441C13.625 20.5645 14.2109 21.1504 15.0312 21.1504H15.5L17.0234 31.873C17.1992 33.2793 18.3711 34.2754 19.7773 34.2754H41.1641C42.5703 34.2754 43.7422 33.2793 43.918 31.873L45.5 21.1504H45.9688C46.7305 21.1504 47.375 20.5645 47.375 19.7441V18.8066ZM31.9062 29.1191C31.9062 29.9395 31.2617 30.5254 30.5 30.5254C29.6797 30.5254 29.0938 29.9395 29.0938 29.1191V22.5566C29.0938 21.7949 29.6797 21.1504 30.5 21.1504C31.2617 21.1504 31.9062 21.7949 31.9062 22.5566V29.1191ZM38.4688 29.1191C38.4688 29.9395 37.8242 30.5254 37.0625 30.5254C36.2422 30.5254 35.6562 29.9395 35.6562 29.1191V22.5566C35.6562 21.7949 36.2422 21.1504 37.0625 21.1504C37.8242 21.1504 38.4688 21.7949 38.4688 22.5566V29.1191ZM25.3438 29.1191C25.3438 29.9395 24.6992 30.5254 23.9375 30.5254C23.1172 30.5254 22.5312 29.9395 22.5312 29.1191V22.5566C22.5312 21.7949 23.1172 21.1504 23.9375 21.1504C24.6992 21.1504 25.3438 21.7949 25.3438 22.5566V29.1191Z" fill="white"/>
<path d="M6.83863 54.0804C6.23063 54.0804 5.68129 54.1871 5.19063 54.4004C4.69996 54.6031 4.28396 54.9071 3.94263 55.3124C3.60129 55.7071 3.33996 56.1924 3.15863 56.7684C2.97729 57.3337 2.88663 57.9737 2.88663 58.6884C2.88663 59.6271 3.03063 60.4431 3.31863 61.1364C3.61729 61.8297 4.05463 62.3631 4.63063 62.7364C5.21729 63.1097 5.94796 63.2964 6.82263 63.2964C7.32396 63.2964 7.79863 63.2537 8.24663 63.1684C8.69463 63.0831 9.13196 62.9764 9.55863 62.8484V64.0964C9.13196 64.2564 8.68929 64.3737 8.23063 64.4484C7.78263 64.5231 7.24396 64.5604 6.61463 64.5604C5.45196 64.5604 4.48129 64.3204 3.70263 63.8404C2.92396 63.3604 2.33729 62.6777 1.94263 61.7924C1.55863 60.9071 1.36663 59.8671 1.36663 58.6724C1.36663 57.8084 1.48396 57.0191 1.71863 56.3044C1.96396 55.5897 2.31596 54.9711 2.77463 54.4484C3.24396 53.9257 3.81996 53.5257 4.50262 53.2484C5.18529 52.9604 5.96929 52.8164 6.85463 52.8164C7.44129 52.8164 8.00663 52.8751 8.55063 52.9924C9.09463 53.1097 9.57996 53.2751 10.0066 53.4884L9.43062 54.7044C9.07863 54.5444 8.68396 54.4004 8.24663 54.2724C7.81996 54.1444 7.35063 54.0804 6.83863 54.0804ZM15.108 55.6804C16.1533 55.6804 16.9267 55.9097 17.428 56.3684C17.9293 56.8271 18.18 57.5577 18.18 58.5604V64.4004H17.156L16.884 63.1844H16.82C16.5747 63.4937 16.3187 63.7551 16.052 63.9684C15.796 64.1711 15.4973 64.3204 15.156 64.4164C14.8253 64.5124 14.42 64.5604 13.94 64.5604C13.428 64.5604 12.964 64.4697 12.548 64.2884C12.1427 64.1071 11.8227 63.8297 11.588 63.4564C11.3533 63.0724 11.236 62.5924 11.236 62.0164C11.236 61.1631 11.572 60.5071 12.244 60.0484C12.916 59.5791 13.9507 59.3231 15.348 59.2804L16.804 59.2324V58.7204C16.804 58.0057 16.6493 57.5097 16.34 57.2324C16.0307 56.9551 15.5933 56.8164 15.028 56.8164C14.58 56.8164 14.1533 56.8857 13.748 57.0244C13.3427 57.1524 12.964 57.3017 12.612 57.4724L12.18 56.4164C12.5533 56.2137 12.996 56.0431 13.508 55.9044C14.02 55.7551 14.5533 55.6804 15.108 55.6804ZM15.524 60.2564C14.4573 60.2991 13.716 60.4697 13.3 60.7684C12.8947 61.0671 12.692 61.4884 12.692 62.0324C12.692 62.5124 12.836 62.8644 13.124 63.0884C13.4227 63.3124 13.8013 63.4244 14.26 63.4244C14.9853 63.4244 15.588 63.2271 16.068 62.8324C16.548 62.4271 16.788 61.8084 16.788 60.9764V60.2084L15.524 60.2564ZM26.0608 55.8244V57.0084H22.2368V64.4004H20.8288V55.8244H26.0608ZM31.0344 64.5604C30.277 64.5604 29.5997 64.4057 29.0024 64.0964C28.4157 63.7871 27.9517 63.3071 27.6104 62.6564C27.2797 62.0057 27.1144 61.1737 27.1144 60.1604C27.1144 59.1044 27.2904 58.2457 27.6424 57.5844C27.9944 56.9231 28.469 56.4377 29.0664 56.1284C29.6744 55.8191 30.3624 55.6644 31.1304 55.6644C31.5677 55.6644 31.989 55.7124 32.3944 55.8084C32.7997 55.8937 33.1304 56.0004 33.3864 56.1284L32.9544 57.2964C32.6984 57.2004 32.3997 57.1097 32.0584 57.0244C31.717 56.9391 31.397 56.8964 31.0984 56.8964C30.5224 56.8964 30.0477 57.0191 29.6744 57.2644C29.301 57.5097 29.0237 57.8724 28.8424 58.3524C28.661 58.8324 28.5704 59.4297 28.5704 60.1444C28.5704 60.8271 28.661 61.4084 28.8424 61.8884C29.0237 62.3684 29.2957 62.7311 29.6584 62.9764C30.021 63.2217 30.4744 63.3444 31.0184 63.3444C31.4877 63.3444 31.8984 63.2964 32.2504 63.2004C32.613 63.1044 32.9437 62.9871 33.2424 62.8484V64.0964C32.9544 64.2457 32.6344 64.3577 32.2824 64.4324C31.941 64.5177 31.525 64.5604 31.0344 64.5604ZM41.8099 64.4004H40.3859V56.9924H37.8579C37.7512 58.3471 37.6179 59.5044 37.4579 60.4644C37.2979 61.4137 37.0952 62.1871 36.8499 62.7844C36.6045 63.3817 36.3112 63.8191 35.9699 64.0964C35.6285 64.3737 35.2285 64.5124 34.7699 64.5124C34.6312 64.5124 34.4925 64.5017 34.3539 64.4804C34.2259 64.4697 34.1192 64.4431 34.0339 64.4004V63.3444C34.0979 63.3657 34.1672 63.3817 34.2419 63.3924C34.3165 63.4031 34.3912 63.4084 34.4659 63.4084C34.7005 63.4084 34.9139 63.3124 35.1059 63.1204C35.2979 62.9284 35.4685 62.6351 35.6179 62.2404C35.7779 61.8457 35.9219 61.3497 36.0499 60.7524C36.1779 60.1444 36.2899 59.4297 36.3859 58.6084C36.4819 57.7871 36.5672 56.8591 36.6419 55.8244H41.8099V64.4004ZM47.7799 55.6804C48.8252 55.6804 49.5985 55.9097 50.0999 56.3684C50.6012 56.8271 50.8519 57.5577 50.8519 58.5604V64.4004H49.8279L49.5559 63.1844H49.4919C49.2465 63.4937 48.9905 63.7551 48.7239 63.9684C48.4679 64.1711 48.1692 64.3204 47.8279 64.4164C47.4972 64.5124 47.0919 64.5604 46.6119 64.5604C46.0999 64.5604 45.6359 64.4697 45.2199 64.2884C44.8145 64.1071 44.4945 63.8297 44.2599 63.4564C44.0252 63.0724 43.9079 62.5924 43.9079 62.0164C43.9079 61.1631 44.2439 60.5071 44.9159 60.0484C45.5879 59.5791 46.6225 59.3231 48.0199 59.2804L49.4759 59.2324V58.7204C49.4759 58.0057 49.3212 57.5097 49.0119 57.2324C48.7025 56.9551 48.2652 56.8164 47.6999 56.8164C47.2519 56.8164 46.8252 56.8857 46.4199 57.0244C46.0145 57.1524 45.6359 57.3017 45.2839 57.4724L44.8519 56.4164C45.2252 56.2137 45.6679 56.0431 46.1799 55.9044C46.6919 55.7551 47.2252 55.6804 47.7799 55.6804ZM48.1959 60.2564C47.1292 60.2991 46.3879 60.4697 45.9719 60.7684C45.5665 61.0671 45.3639 61.4884 45.3639 62.0324C45.3639 62.5124 45.5079 62.8644 45.7959 63.0884C46.0945 63.3124 46.4732 63.4244 46.9319 63.4244C47.6572 63.4244 48.2599 63.2271 48.7399 62.8324C49.2199 62.4271 49.4599 61.8084 49.4599 60.9764V60.2084L48.1959 60.2564ZM55.5326 60.0164L52.5726 55.8244H54.1726L56.3806 59.0564L58.5726 55.8244H60.1566L57.1966 60.0164L60.3166 64.4004H58.7166L56.3806 60.9764L54.0126 64.4004H52.4286L55.5326 60.0164Z" fill="white"/>
<path d="M0.390625 66.4004H60.6046V67.2004H0.390625V66.4004Z" fill="white"/>
</svg>
