<svg width="14" height="15" viewBox="0 0 14 15" fill="none" xmlns="http://www.w3.org/2000/svg">
<path d="M9.43359 8.66211C8.64062 8.66211 8.28516 9.09961 7 9.09961C5.6875 9.09961 5.33203 8.66211 4.53906 8.66211C2.51562 8.66211 0.875 10.3301 0.875 12.3535V13.0371C0.875 13.7754 1.44922 14.3496 2.1875 14.3496H11.8125C12.5234 14.3496 13.125 13.7754 13.125 13.0371V12.3535C13.125 10.3301 11.457 8.66211 9.43359 8.66211ZM11.8125 13.0371H2.1875V12.3535C2.1875 11.041 3.22656 9.97461 4.53906 9.97461C4.94922 9.97461 5.57812 10.4121 7 10.4121C8.39453 10.4121 9.02344 9.97461 9.43359 9.97461C10.7461 9.97461 11.8125 11.041 11.8125 12.3535V13.0371ZM7 8.22461C9.16016 8.22461 10.9375 6.47461 10.9375 4.28711C10.9375 2.12695 9.16016 0.349609 7 0.349609C4.8125 0.349609 3.0625 2.12695 3.0625 4.28711C3.0625 6.47461 4.8125 8.22461 7 8.22461ZM7 1.66211C8.42188 1.66211 9.625 2.86523 9.625 4.28711C9.625 5.73633 8.42188 6.91211 7 6.91211C5.55078 6.91211 4.375 5.73633 4.375 4.28711C4.375 2.86523 5.55078 1.66211 7 1.66211Z" fill="#F17228"/>
</svg>
